PathFileType	3	(X/Y/Z)	D:\minhoCalibration\240510\subject3_KPNP\preferred\preferred10.trc
DataRate	CameraRate	NumFrames	NumMarkers	Units	OrigDataRate	OrigDataStartFrame	OrigNumFrames
200.0	200.0	24	10	mm	200.0	220	121	
Frame#	Time	Left_Ankle_Outer1			Left_Ankle_Inner1			Left_Knee_Outer1			Left_Knee_Inner1			Left_Wrist1			Right_Wrist1			Right_Knee_Inner1			Right_Knee_Outer1			Right_Ankle_Inner1			Right_Ankle_Outer1			
		X1	Y1	Z1	X2	Y2	Z2	X3	Y3	Z3	X4	Y4	Z4	X5	Y5	Z5	X6	Y6	Z6	X7	Y7	Z7	X8	Y8	Z8	X9	Y9	Z9	X10	Y10	Z10	
220	1.09	-348.5466	96.361923	-517.70667	-403.41177	108.13501	-501.71625	-213.47295	510.25378	-429.35999	-299.24289	519.65411	-377.68613	-167.28888	903.08875	-595.96918	-471.14545	1056.9897	-447.28534	-325.75113	854.0827	-93.273094	-420.82874	916.75189	-95.157417	-366.90213	631.48566	255.82617	-462.89883	666.55713	260.08411
221	1.095	-348.54517	94.195908	-517.99847	-402.77826	106.45631	-502.88153	-214.45052	509.61359	-430.0585	-301.1698	518.42163	-379.54404	-166.67744	903.32935	-593.47186	-475.22278	1051.1704	-447.09677	-327.30765	847.64001	-95.165939	-424.34467	907.87939	-96.16909	-373.59399	608.74377	246.55641	-468.79944	639.8764	246.53619
222	1.1	-347.71756	92.580635	-518.82086	-401.93982	104.69898	-504.41028	-215.56369	508.90613	-430.66318	-303.33337	517.15015	-381.48236	-166.20355	903.25189	-591.04523	-478.99426	1045.037	-447.24527	-329.12186	841.27441	-96.886543	-428.00851	898.69055	-97.415985	-380.23215	585.32251	236.01788	-474.39261	612.65442	231.45969
223	1.105	-346.1315	91.512314	-520.22375	-401.29718	102.83952	-505.71893	-216.80565	508.05991	-431.11563	-305.56659	515.80524	-383.3923	-165.44464	903.11743	-588.63794	-482.68521	1038.9019	-447.53409	-331.29709	834.7359	-98.473358	-432.15753	888.79443	-98.988487	-382.57727	561.31567	218.23743	-480.22144	585.98077	215.28345
224	1.11	-346.85468	89.097275	-520.03943	-400.79813	100.99909	-506.94794	-217.89386	507.1572	-431.51492	-307.43408	514.31512	-385.81598	-165.02284	902.8197	-586.21655	-486.01437	1032.3225	-448.33316	-333.83817	827.9035	-99.982986	-436.55017	878.37537	-100.86543	-384.73053	538.00391	199.68694	-485.88916	559.72321	197.62817
225	1.115	-346.16293	87.451485	-521.1095	-400.40466	99.233673	-508.10849	-219.0766	506.20395	-431.8519	-309.88318	513.02942	-387.10995	-164.93427	902.29144	-583.69189	-489.11554	1026.0411	-449.49878	-336.80582	820.45288	-101.42356	-441.30667	867.52179	-103.06628	-390.58948	513.7533	183.3754	-490.95535	533.45654	178.22223
226	1.12	-345.82178	85.939117	-521.83453	-400.33383	97.554077	-509.12201	-220.44995	505.08694	-431.98804	-311.99112	511.54263	-388.85568	-164.32851	901.67303	-581.42297	-492.07861	1019.8643	-450.86734	-340.16974	812.41992	-103.01216	-446.42264	856.26025	-105.80393	-402.57608	486.93423	172.29056	-496.77698	508.57513	158.19934
227	1.125	-346.20828	84.341324	-521.95514	-400.42108	95.812988	-509.97137	-221.83298	503.95203	-432.09525	-313.74313	510.19513	-391.15274	-163.82593	901.11597	-579.13397	-494.68564	1013.8754	-452.52322	-343.81183	803.78351	-104.71163	-451.63962	844.70654	-108.9724	-402.41803	466.20343	147.0788	-501.81116	483.5372	136.46318
228	1.13	-345.59021	83.117523	-523.34045	-400.79996	94.315826	-510.68021	-223.12506	502.76135	-432.1973	-316.25488	508.93021	-391.83063	-163.45299	900.42932	-576.81458	-497.01324	1008.1576	-454.26108	-347.87766	794.47852	-106.61556	-456.63312	833.00464	-112.15459	-405.92389	443.70145	125.5816	-506.75821	460.16937	114.44158
229	1.135	-347.21945	81.190765	-522.67474	-401.2504	92.608337	-511.15842	-224.53621	501.48605	-432.17358	-318.40359	507.45505	-393.12451	-163.27972	899.49677	-574.52521	-499.00116	1002.7951	-456.23386	-352.04797	784.35815	-108.61031	-461.34082	820.95459	-116.34178	-410.33459	420.94037	103.44108	-511.58905	437.31726	91.181694
230	1.14	-347.8454	79.547829	-523.05554	-401.94489	91.273033	-511.77002	-225.82552	500.40991	-432.25006	-320.1821	506.15405	-394.67786	-163.02831	898.70502	-572.34393	-500.60303	997.78296	-458.20682	-356.03888	774.08649	-111.59447	-465.66718	808.86719	-121.00117	-415.12872	399.29028	80.763725	-516.159	415.45438	66.96373
231	1.145	-348.01935	78.519318	-523.90594	-402.31268	89.259453	-511.55508	-227.286	499.29276	-432.43921	-321.88788	504.34644	-396.3259	-162.71941	897.9165	-570.27441	-502.33078	993.7467	-460.48511	-360.12204	763.21265	-114.84882	-469.64709	796.96112	-125.77592	-419.65784	378.20401	56.904217	-520.46088	393.76645	41.491955
232	1.15	-349.35236	76.841599	-523.6474	-403.04987	87.843086	-511.89697	-228.57088	498.25189	-432.49875	-323.55038	503.29138	-397.76834	-162.9864	896.87317	-567.776	-504.33255	990.45441	-462.78964	-364.31958	751.7829	-118.4701	-473.32736	785.32837	-130.7119	-423.9425	358.01468	32.404903	-524.45764	374.24069	16.185116
233	1.155	-350.03625	75.424805	-524.00696	-403.78156	86.665627	-512.32074	-230.23537	497.14581	-432.88531	-325.34299	502.01291	-399.16534	-162.93057	895.92871	-565.63342	-506.29364	987.33521	-465.44504	-368.61609	739.8548	-122.75959	-476.85672	773.94	-136.00443	-427.9863	338.50043	6.7377191	-527.99878	354.91895	-10.745914
234	1.16	-349.98758	74.902962	-524.6156	-404.59286	85.410553	-512.83081	-231.64543	496.25922	-433.18546	-326.95108	500.79959	-400.80713	-163.17653	895.15179	-563.29492	-508.44067	984.54858	-467.78589	-372.77481	727.72424	-127.68134	-480.31235	762.90668	-141.55551	-431.76822	320.07602	-19.710358	-532.4743	337.7984	-36.905186
235	1.165	-349.86087	73.997391	-525.40289	-405.31949	84.033295	-513.02838	-233.14392	495.28836	-433.75818	-328.50919	499.44934	-402.76978	-163.46132	894.36316	-560.995	-510.35373	981.7525	-470.18399	-376.68015	715.53632	-133.13809	-483.93536	752.1687	-147.3291	-434.99283	302.39029	-47.08923	-534.95642	319.75369	-65.339096
236	1.17	-350.86444	72.216888	-525.65234	-405.8136	82.626427	-513.35394	-234.59618	494.5502	-434.40393	-330.03989	498.82324	-404.03528	-163.82341	893.62604	-558.8028	-512.31421	979.05719	-472.50562	-380.93759	703.19019	-139.51648	-487.8577	741.36761	-153.50681	-438.26642	286.48813	-74.667076	-537.53906	304.20648	-93.930779
237	1.175	-351.25949	70.983665	-525.7915	-406.25061	81.05526	-513.82758	-235.78847	493.82254	-435.24017	-331.44351	497.72638	-405.92554	-165.00377	892.98108	-556.36462	-513.83423	975.90564	-474.97952	-384.76712	691.04193	-146.16985	-492.04782	730.65137	-159.99129	-440.70804	271.59549	-102.81571	-540.75909	288.72272	-122.85059
238	1.18	-351.67444	69.044067	-526.36035	-406.68896	79.63958	-514.40765	-236.96187	493.13657	-436.35605	-332.71069	496.76031	-407.85687	-165.35696	892.4856	-554.19824	-515.56018	973.01862	-477.22403	-388.97971	678.76733	-153.49358	-496.59543	719.66229	-166.36308	-443.36978	257.32993	-131.5692	-542.49347	275.38196	-152.17122
239	1.185	-352.12515	67.401764	-526.74335	-407.10004	78.0047	-514.80377	-237.9525	492.44873	-437.65601	-333.85788	495.68286	-410.1456	-165.22052	892.26886	-552.45789	-517.10663	969.97955	-479.48978	-393.37341	666.44507	-161.11838	-501.33701	708.3045	-173.39787	-445.22314	244.88118	-160.08997	-544.98779	263.07092	-179.96497
240	1.19	-353.02167	65.968864	-527.01428	-407.86707	76.745056	-515.33392	-238.76778	491.74536	-439.04019	-336.01935	494.92944	-412.89062	-165.73582	891.94464	-550.35345	-518.40631	966.73242	-481.8829	-397.11664	654.08124	-169.41193	-506.77515	695.98822	-180.97977	-447.00397	233.54811	-188.75328	-546.98511	252.68842	-208.35254
241	1.195	-354.33627	64.727776	-527.1402	-408.74609	75.804909	-515.36597	-239.29741	491.01404	-440.5235	-336.2009	493.90195	-414.24881	-166.36223	891.69269	-548.24506	-519.72772	963.61633	-484.25284	-401.84393	641.77368	-177.54578	-512.22717	683.94861	-189.0088	-448.02615	223.50513	-217.34666	-547.43695	241.58229	-239.71942
242	1.2	-354.62292	65.005623	-527.28491	-409.49689	75.059433	-515.34851	-239.57407	490.24823	-441.92252	-337.65646	492.62912	-416.55292	-167.021	891.57019	-546.22089	-521.02118	960.49408	-486.53775	-406.48892	629.3548	-185.78645	-518.63763	671.98596	-197.12436	-448.20966	215.12473	-245.05376	-548.01318	232.56476	-269.57892
243	1.205	-355.30664	64.414543	-527.49054	-410.0101	74.745338	-515.40576	-239.7123	489.56781	-443.33096	-337.80859	492.14514	-418.31143	-166.26736	891.85687	-544.51776	-522.22174	957.2934	-488.91599	-411.48175	617.25049	-194.1404	-524.638	660.11682	-206.1268	-449.74545	206.73448	-273.69406	-548.27814	224.47627	-299.71378
